<?xml version="1.0" encoding="UTF-8"?>
<svg id="Layer_1" xmlns="http://www.w3.org/2000/svg" version="1.1" viewBox="0 0 518 99">
  <!-- Generator: Adobe Illustrator 29.1.0, SVG Export Plug-In . SVG Version: 2.1.0 Build 142)  -->
  <defs>
    <style>
      .st0 {
        fill: #4d53e8;
      }

      .st1 {
        fill: #1288ef;
      }

      .st2 {
        fill: #2a2a70;
      }

      .st3 {
        isolation: isolate;
        opacity: .5;
      }

      .st3, .st4 {
        fill: #0d0c10;
      }
    </style>
  </defs>
  <g>
    <path class="st1" d="M112,30.2h-45.4c-1.7,0-3.3.9-4.2,2.4l-22.7,39.3-11.6-20c-.9-1.5-.9-3.3,0-4.8L49.5,10.2c.9-1.5,2.5-2.4,4.2-2.4h42.6c1.7,0,3.3.9,4.2,2.4"/>
    <path class="st0" d="M121.8,51.9l-21.3,36.9c-.9,1.5-2.5,2.4-4.2,2.4h-45.4l7.3-12.7h33.6l18.7-32.5,5.4-9.3,5.9,10.2c.9,1.5.9,3.3,0,4.8h0Z"/>
    <polygon class="st3" points="110.5 46.1 91.8 78.6 91.7 78.6 110.5 46.1"/>
    <polygon class="st2" points="115.8 36.8 110.5 46.1 91.7 78.6 58.2 78.6 62 72 78.1 72 86.4 57.5 68.7 57.5 74.1 48 75.2 46.1 102.8 46.1 112 30.2 112 30.2 115.8 36.8"/>
  </g>
  <g>
    <polygon class="st4" points="191.5 32.4 191.5 23.3 149.3 23.3 149.3 81.1 160 81.1 160 58.9 187.9 58.9 187.9 49.9 160 49.9 160 32.4 191.5 32.4"/>
    <path class="st4" d="M231.2,41c-3.5-3.1-8.4-4.6-14.9-4.6s-6.9.5-10.1,1.4c-3.2.9-6.1,2.3-8.5,4.1l4,7.5c1.7-1.4,3.7-2.5,6.1-3.2s4.8-1.2,7.2-1.2c3.7,0,6.5.8,8.4,2.5,1.8,1.7,2.8,4,2.8,7.1v.7h-11.5c-4.5,0-8,.6-10.7,1.7-2.7,1.2-4.6,2.7-5.8,4.7-1.2,2-1.8,4.2-1.8,6.7s.7,4.8,2,6.8,3.3,3.6,5.7,4.7c2.5,1.1,5.4,1.7,8.7,1.7s7.2-.7,9.7-2.2c1.7-1,3.1-2.2,4.1-3.8v5.4h9.7v-25.8c0-6.4-1.7-11.1-5.2-14.2h0ZM221.7,72.4c-2,1.2-4.3,1.7-6.8,1.7s-4.7-.6-6.2-1.7-2.2-2.6-2.2-4.4.6-3.1,1.9-4.2,3.6-1.7,7.1-1.7h10.7v5.1c-.9,2.3-2.4,4-4.4,5.1Z"/>
    <path class="st4" d="M289,47.1c-2-3.4-4.6-6-8-7.9-3.4-1.9-7.2-2.8-11.5-2.8s-6.9.8-9.8,2.4c-1.6.9-3.1,2.1-4.3,3.5v-22.5h-10.2v61.2h9.8v-5.6c1.3,1.6,2.8,2.8,4.5,3.8,3,1.6,6.3,2.4,10,2.4s8.1-.9,11.5-2.8c3.4-1.9,6-4.5,8-7.9,2-3.4,2.9-7.4,2.9-11.9s-1-8.5-2.9-11.9h0ZM279.7,66.3c-1.1,2.1-2.7,3.7-4.7,4.9-1.9,1.1-4.2,1.7-6.7,1.7s-4.6-.6-6.6-1.7c-2-1.1-3.6-2.8-4.7-4.9-1.2-2.1-1.7-4.5-1.7-7.3s.6-5.2,1.7-7.3c1.1-2.1,2.7-3.7,4.7-4.8s4.2-1.7,6.6-1.7,4.8.6,6.7,1.7c1.9,1.1,3.5,2.7,4.7,4.8,1.2,2.1,1.7,4.5,1.7,7.3s-.6,5.2-1.7,7.3Z"/>
    <path class="st4" d="M316.7,38.8c-2.1,1.2-3.8,2.7-5,4.6v-6.4h-9.8v44.1h10.2v-21.3c0-4.6,1.2-8.1,3.5-10.3s5.5-3.4,9.4-3.4.7,0,1.1,0c.4,0,.8,0,1.1.1v-9.8c-4.1,0-7.6.8-10.5,2.3h0Z"/>
    <path class="st4" d="M341.2,29.7c-1.9,0-3.5-.6-4.8-1.8-1.2-1.2-1.9-2.7-1.9-4.5s.6-3.1,1.9-4.3,2.8-1.8,4.8-1.8,3.5.6,4.8,1.7c1.2,1.1,1.9,2.6,1.9,4.3s-.6,3.3-1.8,4.5c-1.2,1.2-2.8,1.9-4.8,1.9h0ZM336.1,81.1v-44.1h10.2v44.1h-10.2Z"/>
    <polygon class="st4" points="408.7 81.1 387.1 51.2 407.3 23.3 395.7 23.3 381.1 43.7 366.3 23.3 354.1 23.3 374.4 51.5 353 81.1 365.2 81.1 380.7 59.1 396.4 81.1 408.7 81.1"/>
    <path class="st4" d="M463.1,81.1h11.3l-26.1-57.8h-10.6l-26,57.8h11l5.7-13.4h28.9l5.7,13.4ZM432.1,59.3l10.9-25.3,10.8,25.3h-21.7Z"/>
    <path class="st4" d="M479.8,81.1V23.3h10.7v57.8h-10.7Z"/>
  </g>
</svg>