<?xml version="1.0" encoding="UTF-8"?>
<svg id="Layer_1" xmlns="http://www.w3.org/2000/svg" version="1.1" viewBox="0 0 800 340">
  <!-- Generator: Adobe Illustrator 29.1.0, SVG Export Plug-In . SVG Version: 2.1.0 Build 142)  -->
  <defs>
    <style>
      .st0 {
        fill: #4d53e8;
      }

      .st1 {
        fill: #1288ef;
      }

      .st2 {
        fill: #2a2a70;
      }

      .st3 {
        isolation: isolate;
        opacity: .5;
      }

      .st3, .st4 {
        fill: #0d0c10;
      }
    </style>
  </defs>
  <g>
    <path class="st1" d="M223.2,146.8h-54.6c-2.1,0-4,1.1-5,2.9l-27.3,47.3-13.9-24.1c-1-1.8-1-4,0-5.8l25.6-44.4c1-1.8,3-2.9,5-2.9h51.3c2.1,0,4,1.1,5,2.9"/>
    <path class="st0" d="M234.9,172.9l-25.6,44.4c-1,1.8-3,2.9-5,2.9h-54.6l8.8-15.2h40.4l22.5-39,6.4-11.2,7.1,12.3c1,1.8,1,4,0,5.8h0Z"/>
    <polygon class="st3" points="221.4 165.9 198.8 205 198.8 205 221.4 165.9"/>
    <polygon class="st2" points="227.8 154.8 221.4 165.9 198.8 205 158.4 205 163 197 182.4 197 192.4 179.6 171 179.6 177.6 168.2 179 165.9 212.1 165.9 223.2 146.8 223.2 146.8 227.8 154.8"/>
  </g>
  <g>
    <polygon class="st4" points="318.8 149.4 318.8 138.5 268 138.5 268 208 280.9 208 280.9 181.3 314.5 181.3 314.5 170.5 280.9 170.5 280.9 149.4 318.8 149.4"/>
    <path class="st4" d="M366.5,159.8c-4.2-3.7-10.1-5.6-17.9-5.6s-8.3.6-12.2,1.7c-3.9,1.1-7.3,2.8-10.2,5l4.9,9c2.1-1.6,4.5-2.9,7.3-3.9s5.7-1.4,8.6-1.4c4.5,0,7.9,1,10.1,3,2.2,2,3.3,4.8,3.3,8.5v.8h-13.8c-5.4,0-9.7.7-12.9,2.1-3.2,1.4-5.6,3.3-7,5.7-1.4,2.4-2.1,5.1-2.1,8s.8,5.8,2.4,8.2,3.9,4.3,6.9,5.7c3,1.4,6.4,2,10.4,2s8.7-.9,11.7-2.6c2.1-1.2,3.7-2.7,5-4.6v6.4h11.7v-31.1c0-7.7-2.1-13.4-6.3-17.1h0ZM355.2,197.6c-2.4,1.4-5.1,2.1-8.2,2.1s-5.7-.7-7.4-2-2.7-3.1-2.7-5.3.7-3.8,2.2-5.1,4.3-2,8.5-2h12.9v6.2c-1.1,2.7-2.9,4.8-5.3,6.2Z"/>
    <path class="st4" d="M436.1,167.2c-2.3-4.1-5.5-7.3-9.6-9.5-4-2.2-8.6-3.4-13.8-3.4s-8.3,1-11.8,2.9c-1.9,1.1-3.7,2.5-5.2,4.2v-27.1h-12.3v73.7h11.8v-6.8c1.5,1.9,3.4,3.4,5.5,4.5,3.6,1.9,7.6,2.9,12,2.9s9.8-1.1,13.8-3.4c4-2.2,7.2-5.4,9.6-9.5,2.3-4.1,3.5-8.9,3.5-14.4s-1.2-10.2-3.5-14.3h0ZM424.9,190.3c-1.4,2.6-3.3,4.5-5.6,5.9-2.3,1.4-5.1,2-8.1,2s-5.6-.7-7.9-2c-2.4-1.4-4.3-3.3-5.7-5.9-1.4-2.6-2.1-5.5-2.1-8.8s.7-6.3,2.1-8.8c1.4-2.5,3.3-4.4,5.7-5.8s5-2,7.9-2,5.7.7,8.1,2c2.3,1.4,4.2,3.3,5.6,5.8,1.4,2.5,2.1,5.4,2.1,8.8s-.7,6.2-2.1,8.8Z"/>
    <path class="st4" d="M469.4,157.1c-2.6,1.4-4.6,3.2-6.1,5.6v-7.7h-11.8v53h12.3v-25.6c0-5.6,1.4-9.7,4.2-12.4s6.6-4.1,11.3-4.1.8,0,1.3,0c.5,0,.9,0,1.4.1v-11.8c-5,0-9.2.9-12.6,2.8h0Z"/>
    <path class="st4" d="M498.8,146.2c-2.3,0-4.2-.7-5.7-2.2-1.5-1.5-2.2-3.2-2.2-5.4s.7-3.7,2.2-5.2,3.4-2.2,5.7-2.2,4.2.7,5.7,2c1.5,1.4,2.2,3.1,2.2,5.2s-.7,3.9-2.2,5.4c-1.5,1.5-3.4,2.2-5.8,2.2h0ZM492.7,208v-53h12.3v53h-12.3Z"/>
    <polygon class="st4" points="580.1 208 554.1 172 578.4 138.5 564.4 138.5 546.9 163 529 138.5 514.3 138.5 538.8 172.5 513.1 208 527.8 208 546.4 181.5 565.3 208 580.1 208"/>
    <path class="st4" d="M645.5,208h13.6l-31.4-69.5h-12.7l-31.3,69.5h13.2l6.9-16.1h34.8l6.9,16.1ZM608.2,181.8l13.1-30.4,13,30.4h-26.1Z"/>
    <path class="st4" d="M665.5,208v-69.5h12.9v69.5h-12.9Z"/>
  </g>
</svg>